<svg xmlns="http://www.w3.org/2000/svg" version="1.1" xmlns:xlink="http://www.w3.org/1999/xlink" xmlns:svgjs="http://svgjs.dev/svgjs" width="2000" height="1500" viewBox="0 0 2000 1500"><rect width="2000" height="1500" fill="#ffffff"></rect><g transform="matrix(0.75,0,0,0.75,249.090909090909,282.7536437246964)"><svg viewBox="0 0 396 247" data-background-color="#1b4571" preserveAspectRatio="xMidYMid meet" height="1247" width="2000" xmlns="http://www.w3.org/2000/svg" xmlns:xlink="http://www.w3.org/1999/xlink"><g id="tight-bounds" transform="matrix(1,0,0,1,0.2400000000000091,-0.09999999999999432)"><svg viewBox="0 0 395.52 247.2" height="247.2" width="395.52"><g><svg></svg></g><g><svg viewBox="0 0 395.52 247.2" height="247.2" width="395.52"><g transform="matrix(1,0,0,1,75.54432,95.43612390375606)"><svg viewBox="0 0 244.43135999999998 56.32775219248787" height="56.32775219248787" width="244.43135999999998"><g><svg viewBox="0 0 244.43135999999998 56.32775219248787" height="56.32775219248787" width="244.43135999999998"><g><svg viewBox="0 0 244.43135999999998 56.32775219248787" height="56.32775219248787" width="244.43135999999998"><g id="textblocktransform"><svg viewBox="0 0 244.43135999999998 56.32775219248787" height="56.32775219248787" width="244.43135999999998" id="textblock"><g><svg viewBox="0 0 244.43135999999998 30.380497990636776" height="30.380497990636776" width="244.43135999999998"><g transform="matrix(1,0,0,1,0,0)"><svg width="244.43135999999998" viewBox="1.1375000476837158 -37 301.6824951171875 37.5" height="30.380497990636776" data-palette-color="#ffffff"><path d="M15.4-29.85L16.5-29.8 4.75-1.2Q4.55-0.6 4.05-0.25 3.55 0.1 3 0.1L3 0.1Q2.05 0.1 1.6-0.4 1.15-0.9 1.15-1.6L1.15-1.6Q1.1-1.95 1.25-2.35L1.25-2.35 14.2-33.85Q14.45-34.55 14.98-34.88 15.5-35.2 16.15-35.15L16.15-35.15Q16.8-35.15 17.32-34.8 17.85-34.45 18.05-33.85L18.05-33.85 30.95-2.65Q31.1-2.25 31.1-1.85L31.1-1.85Q31.1-0.95 30.5-0.43 29.9 0.1 29.15 0.1L29.15 0.1Q28.55 0.1 28.05-0.25 27.55-0.6 27.3-1.25L27.3-1.25 15.4-29.85ZM24.55-9.35L7.25-9.35 8.95-13.25 23.8-13.25 24.55-9.35ZM48.75-26.5L48.75-26.5Q52.15-26.5 54.1-25.1 56.05-23.7 56.87-21.35 57.7-19 57.7-16.1L57.7-16.1 57.7-2.05Q57.7-1.2 57.12-0.6 56.55 0 55.7 0L55.7 0Q54.85 0 54.27-0.6 53.7-1.2 53.7-2.05L53.7-2.05 53.7-16Q53.7-17.9 53.12-19.43 52.55-20.95 51.22-21.88 49.9-22.8 47.6-22.8L47.6-22.8Q45.5-22.8 43.75-21.88 42-20.95 40.95-19.43 39.9-17.9 39.9-16L39.9-16 39.9-2.05Q39.9-1.2 39.32-0.6 38.75 0 37.9 0L37.9 0Q37.05 0 36.47-0.6 35.9-1.2 35.9-2.05L35.9-2.05 35.9-23.85Q35.9-24.7 36.47-25.28 37.05-25.85 37.9-25.85L37.9-25.85Q38.8-25.85 39.35-25.28 39.9-24.7 39.9-23.85L39.9-23.85 39.9-20.3 38.9-19.2Q39.15-20.5 40.05-21.83 40.95-23.15 42.3-24.2 43.65-25.25 45.3-25.88 46.95-26.5 48.75-26.5ZM86.15-37L86.15-37Q87.05-37 87.6-36.43 88.15-35.85 88.15-35L88.15-35 88.15-2.05Q88.15-1.2 87.57-0.6 87 0 86.15 0L86.15 0Q85.3 0 84.72-0.6 84.15-1.2 84.15-2.05L84.15-2.05 84.15-6.8 85.1-7.15Q85.1-5.95 84.37-4.63 83.65-3.3 82.32-2.15 81-1 79.25-0.25 77.5 0.5 75.45 0.5L75.45 0.5Q72.05 0.5 69.35-1.25 66.65-3 65.07-6.05 63.5-9.1 63.5-13L63.5-13Q63.5-16.95 65.07-20 66.65-23.05 69.32-24.78 72-26.5 75.35-26.5L75.35-26.5Q77.45-26.5 79.27-25.8 81.1-25.1 82.5-23.9 83.9-22.7 84.67-21.25 85.45-19.8 85.45-18.35L85.45-18.35 84.15-18.65 84.15-35Q84.15-35.85 84.72-36.43 85.3-37 86.15-37ZM75.85-3.2L75.85-3.2Q78.4-3.2 80.3-4.48 82.2-5.75 83.3-7.98 84.4-10.2 84.4-13L84.4-13Q84.4-15.85 83.3-18.05 82.2-20.25 80.27-21.53 78.35-22.8 75.85-22.8L75.85-22.8Q73.4-22.8 71.47-21.53 69.55-20.25 68.45-18.05 67.35-15.85 67.35-13L67.35-13Q67.35-10.25 68.45-8.03 69.55-5.8 71.47-4.5 73.4-3.2 75.85-3.2ZM97.54 0L97.54 0Q96.69 0 96.12-0.6 95.54-1.2 95.54-2.05L95.54-2.05 95.54-23.85Q95.54-24.7 96.12-25.28 96.69-25.85 97.54-25.85L97.54-25.85Q98.44-25.85 98.99-25.28 99.54-24.7 99.54-23.85L99.54-23.85 99.54-17.25 98.94-18.3Q99.24-19.85 100.02-21.33 100.79-22.8 101.99-23.98 103.19-25.15 104.74-25.83 106.29-26.5 108.14-26.5L108.14-26.5Q109.24-26.5 110.17-25.98 111.09-25.45 111.09-24.5L111.09-24.5Q111.09-23.45 110.54-22.95 109.99-22.45 109.29-22.45L109.29-22.45Q108.64-22.45 108.04-22.73 107.44-23 106.54-23L106.54-23Q105.29-23 104.07-22.33 102.84-21.65 101.82-20.4 100.79-19.15 100.17-17.57 99.54-16 99.54-14.2L99.54-14.2 99.54-2.05Q99.54-1.2 98.97-0.6 98.39 0 97.54 0ZM126.19 0.5L126.19 0.5Q122.19 0.5 119.19-1.2 116.19-2.9 114.54-5.88 112.89-8.85 112.89-12.75L112.89-12.75Q112.89-17.1 114.62-20.18 116.34-23.25 119.09-24.88 121.84-26.5 124.94-26.5L124.94-26.5Q127.29-26.5 129.42-25.65 131.54-24.8 133.22-23.18 134.89-21.55 135.89-19.28 136.89-17 136.94-14.2L136.94-14.2Q136.89-13.4 136.29-12.85 135.69-12.3 134.89-12.3L134.89-12.3 115.14-12.3 114.24-15.75 133.49-15.75 132.69-15.05 132.69-16.15Q132.54-18.2 131.37-19.68 130.19-21.15 128.49-21.95 126.79-22.75 124.94-22.75L124.94-22.75Q123.44-22.75 121.97-22.23 120.49-21.7 119.32-20.53 118.14-19.35 117.44-17.5 116.74-15.65 116.74-13.05L116.74-13.05Q116.74-10.15 117.92-7.95 119.09-5.75 121.19-4.48 123.29-3.2 126.04-3.2L126.04-3.2Q127.84-3.2 129.14-3.65 130.44-4.1 131.37-4.78 132.29-5.45 132.94-6.15L132.94-6.15Q133.59-6.6 134.24-6.6L134.24-6.6Q134.94-6.6 135.44-6.1 135.94-5.6 135.94-4.9L135.94-4.9Q135.94-4.05 135.14-3.4L135.14-3.4Q133.69-1.85 131.32-0.68 128.94 0.5 126.19 0.5ZM141.24-4.1L141.24-4.1Q140.79-4.75 140.84-5.48 140.89-6.2 141.69-6.75L141.69-6.75Q142.19-7.1 142.86-7.05 143.54-7 144.09-6.4L144.09-6.4Q145.49-4.75 147.29-3.78 149.09-2.8 151.69-2.8L151.69-2.8Q152.89-2.85 154.09-3.2 155.29-3.55 156.11-4.42 156.94-5.3 156.94-6.75L156.94-6.75Q156.94-8.15 156.09-8.97 155.24-9.8 153.89-10.33 152.54-10.85 150.94-11.25L150.94-11.25Q149.29-11.7 147.69-12.28 146.09-12.85 144.81-13.73 143.54-14.6 142.76-15.93 141.99-17.25 141.99-19.15L141.99-19.15Q141.99-21.4 143.21-23.05 144.44-24.7 146.51-25.6 148.59-26.5 151.04-26.5L151.04-26.5Q152.44-26.5 153.96-26.18 155.49-25.85 156.94-25.08 158.39-24.3 159.49-22.95L159.49-22.95Q159.94-22.45 159.99-21.7 160.04-20.95 159.34-20.35L159.34-20.35Q158.79-19.95 158.11-20 157.44-20.05 156.99-20.5L156.99-20.5Q155.94-21.75 154.36-22.43 152.79-23.1 150.89-23.1L150.89-23.1Q149.69-23.1 148.54-22.75 147.39-22.4 146.61-21.58 145.84-20.75 145.84-19.3L145.84-19.3Q145.89-17.95 146.74-17.1 147.59-16.25 149.04-15.73 150.49-15.2 152.24-14.7L152.24-14.7Q153.84-14.3 155.31-13.78 156.79-13.25 157.99-12.4 159.19-11.55 159.89-10.23 160.59-8.9 160.59-6.9L160.59-6.9Q160.59-4.6 159.29-2.93 157.99-1.25 155.86-0.38 153.74 0.5 151.29 0.5L151.29 0.5Q148.54 0.5 145.86-0.55 143.19-1.6 141.24-4.1ZM182.83-35L194.53-35Q197.28-35 199.48-33.65 201.68-32.3 202.96-29.95 204.23-27.6 204.23-24.6L204.23-24.6Q204.23-21.65 202.96-19.25 201.68-16.85 199.48-15.45 197.28-14.05 194.53-14.05L194.53-14.05 184.38-14.05 184.73-14.65 184.73-2.05Q184.73-1.2 184.18-0.6 183.63 0 182.78 0L182.78 0Q181.88 0 181.36-0.6 180.83-1.2 180.83-2.05L180.83-2.05 180.83-33Q180.83-33.85 181.41-34.43 181.98-35 182.83-35L182.83-35ZM184.38-17.9L194.53-17.9Q196.18-17.9 197.43-18.8 198.68-19.7 199.43-21.25 200.18-22.8 200.18-24.6L200.18-24.6Q200.18-26.5 199.43-27.95 198.68-29.4 197.43-30.28 196.18-31.15 194.53-31.15L194.53-31.15 184.38-31.15 184.73-31.7 184.73-17.4 184.38-17.9ZM230.88-26.1L230.88-26.1Q231.78-26.1 232.33-25.53 232.88-24.95 232.88-24.1L232.88-24.1 232.88-2.05Q232.88-1.2 232.31-0.6 231.73 0 230.88 0L230.88 0Q230.03 0 229.45-0.6 228.88-1.2 228.88-2.05L228.88-2.05 228.88-6.8 229.83-6.9Q229.83-5.8 229.08-4.5 228.33-3.2 227.03-2.08 225.73-0.95 223.98-0.23 222.23 0.5 220.18 0.5L220.18 0.5Q216.78 0.5 214.06-1.28 211.33-3.05 209.78-6.1 208.23-9.15 208.23-13.05L208.23-13.05Q208.23-17 209.81-20.03 211.38-23.05 214.06-24.78 216.73-26.5 220.08-26.5L220.08-26.5Q222.23-26.5 224.08-25.8 225.93-25.1 227.31-23.9 228.68-22.7 229.43-21.25 230.18-19.8 230.18-18.35L230.18-18.35 228.88-18.65 228.88-24.1Q228.88-24.95 229.45-25.53 230.03-26.1 230.88-26.1ZM220.58-3.2L220.58-3.2Q223.08-3.2 225-4.5 226.93-5.8 228.03-8.03 229.13-10.25 229.13-13.05L229.13-13.05Q229.13-15.8 228.03-18.03 226.93-20.25 225-21.53 223.08-22.8 220.58-22.8L220.58-22.8Q218.13-22.8 216.2-21.55 214.28-20.3 213.18-18.1 212.08-15.9 212.08-13.05L212.08-13.05Q212.08-10.25 213.18-8.03 214.28-5.8 216.2-4.5 218.13-3.2 220.58-3.2ZM242.28 0L242.28 0Q241.43 0 240.85-0.6 240.28-1.2 240.28-2.05L240.28-2.05 240.28-23.85Q240.28-24.7 240.85-25.28 241.43-25.85 242.28-25.85L242.28-25.85Q243.18-25.85 243.73-25.28 244.28-24.7 244.28-23.85L244.28-23.85 244.28-17.25 243.68-18.3Q243.98-19.85 244.75-21.33 245.53-22.8 246.73-23.98 247.93-25.15 249.48-25.83 251.03-26.5 252.88-26.5L252.88-26.5Q253.98-26.5 254.9-25.98 255.83-25.45 255.83-24.5L255.83-24.5Q255.83-23.45 255.28-22.95 254.73-22.45 254.03-22.45L254.03-22.45Q253.38-22.45 252.78-22.73 252.18-23 251.28-23L251.28-23Q250.03-23 248.8-22.33 247.58-21.65 246.55-20.4 245.53-19.15 244.9-17.57 244.28-16 244.28-14.2L244.28-14.2 244.28-2.05Q244.28-1.2 243.7-0.6 243.13 0 242.28 0ZM262.32 0L262.32 0Q261.48 0 260.9-0.6 260.32-1.2 260.32-2.05L260.32-2.05 260.32-23.85Q260.32-24.7 260.9-25.28 261.48-25.85 262.32-25.85L262.32-25.85Q263.23-25.85 263.77-25.28 264.32-24.7 264.32-23.85L264.32-23.85 264.32-17.25 263.73-18.3Q264.02-19.85 264.8-21.33 265.57-22.8 266.77-23.98 267.98-25.15 269.52-25.83 271.07-26.5 272.93-26.5L272.93-26.5Q274.02-26.5 274.95-25.98 275.88-25.45 275.88-24.5L275.88-24.5Q275.88-23.45 275.32-22.95 274.77-22.45 274.07-22.45L274.07-22.45Q273.43-22.45 272.82-22.73 272.23-23 271.32-23L271.32-23Q270.07-23 268.85-22.33 267.63-21.65 266.6-20.4 265.57-19.15 264.95-17.57 264.32-16 264.32-14.2L264.32-14.2 264.32-2.05Q264.32-1.2 263.75-0.6 263.18 0 262.32 0ZM300.82-26.1L300.82-26.1Q301.72-26.1 302.27-25.53 302.82-24.95 302.82-24.1L302.82-24.1 302.82-2.05Q302.82-1.2 302.25-0.6 301.67 0 300.82 0L300.82 0Q299.97 0 299.4-0.6 298.82-1.2 298.82-2.05L298.82-2.05 298.82-6.8 299.77-6.9Q299.77-5.8 299.02-4.5 298.27-3.2 296.97-2.08 295.67-0.95 293.92-0.23 292.17 0.5 290.12 0.5L290.12 0.5Q286.72 0.5 284-1.28 281.27-3.05 279.72-6.1 278.17-9.15 278.17-13.05L278.17-13.05Q278.17-17 279.75-20.03 281.32-23.05 284-24.78 286.67-26.5 290.02-26.5L290.02-26.5Q292.17-26.5 294.02-25.8 295.87-25.1 297.25-23.9 298.62-22.7 299.37-21.25 300.12-19.8 300.12-18.35L300.12-18.35 298.82-18.65 298.82-24.1Q298.82-24.95 299.4-25.53 299.97-26.1 300.82-26.1ZM290.52-3.2L290.52-3.2Q293.02-3.2 294.95-4.5 296.87-5.8 297.97-8.03 299.07-10.25 299.07-13.05L299.07-13.05Q299.07-15.8 297.97-18.03 296.87-20.25 294.95-21.53 293.02-22.8 290.52-22.8L290.52-22.8Q288.07-22.8 286.15-21.55 284.22-20.3 283.12-18.1 282.02-15.9 282.02-13.05L282.02-13.05Q282.02-10.25 283.12-8.03 284.22-5.8 286.15-4.5 288.07-3.2 290.52-3.2Z" opacity="1" transform="matrix(1,0,0,1,0,0)" fill="#000000" class="wordmark-text-0" data-fill-palette-color="primary" id="text-0"></path></svg></g></svg></g><g transform="matrix(1,0,0,1,0,37.55260443427434)"><svg viewBox="0 0 244.43135999999998 18.775147758213528" height="18.775147758213528" width="244.43135999999998"><g transform="matrix(1,0,0,1,0,0)"><svg width="244.43135999999998" viewBox="0.75 -35 456.9599914550781 35.099998474121094" height="18.775147758213528" data-palette-color="#ffffff"><path d="M26 0.1L26 0.1Q21.65 0.1 21.3-1.3L21.3-1.3 19.65-7.75 11.7-7.75 10.25-1.55Q9.95 0 5.45 0L5.45 0Q3.05 0 1.9-0.28 0.75-0.55 0.75-0.7L0.75-0.7 9.6-34.55Q9.6-34.95 16.45-34.95 23.3-34.95 23.3-34.55L23.3-34.55 31.95-0.65Q31.95-0.3 29.65-0.1 27.35 0.1 26 0.1ZM15.65-24.45L12.95-14.1 18.2-14.1 15.95-24.45 15.65-24.45ZM159.05 0.1L159.05 0.1Q154.5 0.1 154.5-0.9L154.5-0.9 154.5-33.3Q154.5-35 156.05-35L156.05-35 164.85-35Q172.25-35 175.53-31.95 178.8-28.9 178.8-23.1L178.8-23.1Q178.8-18.3 175.7-14.3L175.7-14.3Q174.15-12.3 171.15-11.1 168.15-9.9 164.15-9.9L164.15-9.9 164.15-0.95Q164.15-0.35 162.28-0.13 160.4 0.1 159.05 0.1ZM165.2-26.3L164.15-26.3 164.15-18.4 164.8-18.4Q166.55-18.4 167.75-19.5 168.95-20.6 168.95-22.6 168.95-24.6 168.13-25.45 167.3-26.3 165.2-26.3L165.2-26.3ZM317.96-33.7L317.96-0.85Q317.96 0 312.88 0 307.81 0 307.81-0.85L307.81-0.85 307.81-25.5 302.41-25.45Q300.91-25.45 300.91-30.25L300.91-30.25Q300.91-31.9 301.23-33.45 301.56-35 302.36-35L302.36-35 316.06-35Q316.91-35 317.43-34.63 317.96-34.25 317.96-33.7L317.96-33.7ZM457.71-33.7L457.71-0.85Q457.71 0 452.64 0 447.56 0 447.56-0.85L447.56-0.85 447.56-25.5 442.16-25.45Q440.66-25.45 440.66-30.25L440.66-30.25Q440.66-31.9 440.99-33.45 441.31-35 442.11-35L442.11-35 455.81-35Q456.66-35 457.19-34.63 457.71-34.25 457.71-33.7L457.71-33.7Z" opacity="1" transform="matrix(1,0,0,1,0,0)" fill="#000000" class="slogan-text-1" data-fill-palette-color="secondary" id="text-1"></path></svg></g></svg></g></svg></g></svg></g></svg></g></svg></g><g><path d="M245.816 0c68.262 0 123.6 55.338 123.6 123.6 0 68.262-55.338 123.6-123.6 123.6-57.286 0-105.47-38.972-119.484-91.85h1.418c13.979 52.113 61.542 90.48 118.066 90.48 67.506 0 122.23-54.724 122.23-122.23 0-67.506-54.724-122.23-122.23-122.23-56.524 0-104.087 38.368-118.066 90.48l-1.418 0c14.014-52.878 62.198-91.85 119.484-91.85z" fill="#000000" stroke="transparent" data-fill-palette-color="tertiary"></path></g></svg></g><defs></defs></svg><rect width="395.52" height="247.2" fill="none" stroke="none" visibility="hidden"></rect></g></svg></g></svg>